<?xml version="1.0" encoding="UTF-8"?>
<svg width="24px" height="24px" viewBox="0 0 24 24" version="1.1" xmlns="http://www.w3.org/2000/svg" xmlns:xlink="http://www.w3.org/1999/xlink">
    <title>ArrowLeftGrey</title>
    <g id="hokej.cz-facelift-2021" stroke="none" stroke-width="1" fill="none" fill-rule="evenodd">
        <g id="Komponenty" transform="translate(-145.000000, -3973.000000)" fill="#677A8E">
            <path d="M157,3997 C163.62745,3997 169,3991.62745 169,3985 C169,3978.37258 163.62745,3973 157,3973 C150.37258,3973 145,3978.37258 145,3985 C145,3991.62745 150.37258,3997 157,3997 Z M158.06065,3981.56066 C158.6464,3980.97487 158.6464,3980.02513 158.06065,3979.43934 C157.4749,3978.85356 156.52513,3978.85356 155.939335,3979.43934 L151.439335,3983.93934 C150.853555,3984.52513 150.853555,3985.4749 151.439335,3986.06065 L155.939335,3990.56065 C156.52513,3991.1464 157.4749,3991.1464 158.06065,3990.56065 C158.6464,3989.9749 158.6464,3989.0251 158.06065,3988.43935 L156.121315,3986.5 L161.5,3986.5 C162.32845,3986.5 163,3985.82845 163,3985 C163,3984.17158 162.32845,3983.5 161.5,3983.5 L156.121315,3983.5 L158.06065,3981.56066 Z" id="ArrowLeftGrey"></path>
        </g>
    </g>
</svg>