<?xml version="1.0" encoding="UTF-8"?>
<svg width="24px" height="24px" viewBox="0 0 24 24" version="1.1" xmlns="http://www.w3.org/2000/svg" xmlns:xlink="http://www.w3.org/1999/xlink">
    <title>ArrowRightBlack</title>
    <g id="hokej.cz-facelift-2021" stroke="none" stroke-width="1" fill="none" fill-rule="evenodd">
        <g id="Komponenty" transform="translate(-111.000000, -3945.000000)" fill="#051625">
            <path d="M123,3969 C129.62745,3969 135,3963.62745 135,3957 C135,3950.37258 129.62745,3945 123,3945 C116.37258,3945 111,3950.37258 111,3957 C111,3963.62745 116.37258,3969 123,3969 Z M128.56065,3955.93934 L124.06065,3951.43934 C123.4749,3950.85356 122.52513,3950.85356 121.939335,3951.43934 C121.353555,3952.02513 121.353555,3952.97487 121.939335,3953.56066 L123.8787,3955.5 L118.5,3955.5 C117.67158,3955.5 117,3956.17157 117,3957 C117,3957.82845 117.67158,3958.5 118.5,3958.5 L123.8787,3958.5 L121.939335,3960.43935 C121.353555,3961.0251 121.353555,3961.9749 121.939335,3962.56065 C122.52513,3963.1464 123.4749,3963.1464 124.06065,3962.56065 L128.56065,3958.06065 C129.1464,3957.4749 129.1464,3956.52513 128.56065,3955.93934 Z" id="ArrowRightBlack"></path>
        </g>
    </g>
</svg>