<?xml version="1.0" encoding="UTF-8"?>
<svg width="24px" height="24px" viewBox="0 0 24 24" version="1.1" xmlns="http://www.w3.org/2000/svg" xmlns:xlink="http://www.w3.org/1999/xlink">
    <title>ArrowRightGrey</title>
    <g id="hokej.cz-facelift-2021" stroke="none" stroke-width="1" fill="none" fill-rule="evenodd">
        <g id="Komponenty" transform="translate(-145.000000, -3945.000000)" fill="#677A8E">
            <path d="M157,3969 C163.62745,3969 169,3963.62745 169,3957 C169,3950.37258 163.62745,3945 157,3945 C150.37258,3945 145,3950.37258 145,3957 C145,3963.62745 150.37258,3969 157,3969 Z M162.56065,3955.93934 L158.06065,3951.43934 C157.4749,3950.85356 156.52513,3950.85356 155.939335,3951.43934 C155.353555,3952.02513 155.353555,3952.97487 155.939335,3953.56066 L157.8787,3955.5 L152.5,3955.5 C151.67158,3955.5 151,3956.17157 151,3957 C151,3957.82845 151.67158,3958.5 152.5,3958.5 L157.8787,3958.5 L155.939335,3960.43935 C155.353555,3961.0251 155.353555,3961.9749 155.939335,3962.56065 C156.52513,3963.1464 157.4749,3963.1464 158.06065,3962.56065 L162.56065,3958.06065 C163.1464,3957.4749 163.1464,3956.52513 162.56065,3955.93934 Z" id="ArrowRightGrey"></path>
        </g>
    </g>
</svg>