<svg xmlns="http://www.w3.org/2000/svg" width="100" height="12" viewBox="0 0 100 12"><path fill="#ED2E38" fill-rule="evenodd" d="M3.59445813,0 L0,0 L0,1.79381443 L7.2520936,1.79381443 C6.72820197,0.569072165 5.34827586,0 3.59445813,0 M7.00578818,4.60292784 L0,4.60292784 L0,2.81641237 L7.47536946,2.81641237 C7.47894089,2.88643299 7.48091133,2.95719588 7.48017241,3.02956701 C7.47401478,3.69451546 7.31539409,4.20717526 7.00591133,4.60342268 M0,5.62626804 L0,7.41030928 L6.53091133,7.41030928 L5.43743842,5.62639175 L0,5.62639175 L0,5.62626804 Z M0,8.43303093 L7.15812808,8.43303093 L8.25972906,10.2294433 L0,10.2294433 L0,8.43303093 Z M16.1316502,7.30465979 L17.8896552,10.2329072 L15.9700739,10.2329072 L14.3756158,7.57694845 L13.2216749,7.57694845 L13.2216749,10.2329072 L11.4883005,10.2329072 L11.4883005,2.54845361 L14.4350985,2.54845361 C15.5942118,2.54845361 16.6235222,2.71175258 17.1762315,3.86523711 C17.335788,4.23618933 17.4168537,4.63640494 17.4142857,5.04049485 C17.4142857,5.59534021 17.2844828,6.18321649 16.9376847,6.62931959 C16.7276184,6.91687422 16.4509593,7.14867452 16.1316502,7.30465979 L16.1316502,7.30465979 Z M15.4644089,4.36626804 C15.117734,3.93117526 14.5541872,3.95282474 14.0557882,3.95282474 L13.2216749,3.95282474 L13.2216749,6.15129897 C13.525,6.15129897 13.8391626,6.16206186 14.1424877,6.16206186 C14.4242611,6.16206186 14.8251232,6.16206186 15.0850985,6.04243299 C15.4693269,5.86730406 15.7093254,5.47547638 15.6917488,5.052 C15.6944225,4.80431853 15.6143797,4.5628833 15.4644089,4.36626804 L15.4644089,4.36626804 Z M23.4375774,10.2352577 L21.9064039,10.2352577 L21.8955665,9.72334021 C21.2769704,10.1586804 20.9295567,10.3985567 20.1263547,10.3985567 C19.0410099,10.3985567 18.1726601,9.72334021 18.1726601,8.58 C18.1726601,6.97942268 19.7243842,6.8377732 20.9403941,6.66358763 C21.2225369,6.61991753 21.8087438,6.59826804 21.8087438,6.19534021 C21.8087438,5.75975258 21.2876847,5.67265979 20.9513547,5.67265979 C20.5062808,5.67265979 19.9415025,5.82519588 19.96367,6.38028866 L18.4875616,6.38028866 C18.5634236,4.97579381 19.6162562,4.43121649 20.8862069,4.43121649 C21.8195813,4.43121649 22.8725369,4.584 23.2848522,5.56379381 C23.4584975,5.98837113 23.4366995,6.64169072 23.4366995,7.09905155 L23.4375774,10.2352577 Z M21.8517241,7.53538144 C21.7242851,7.58700542 21.5937797,7.63063565 21.4609606,7.66602062 C21.0160099,7.78589691 19.7899015,7.79665979 19.7899015,8.52618557 C19.7899015,8.99443299 20.2130542,9.13583505 20.5385468,9.13583505 C20.6580049,9.13583505 21.4392857,9.12507216 21.8517241,8.40593814 L21.8517241,7.53501031 L21.8517241,7.53538144 Z M28.2327586,10.2355052 L28.2327586,9.69117526 C27.907266,10.2028454 27.3214286,10.3770309 26.7460591,10.3770309 C25.1508621,10.3770309 24.347783,8.90721649 24.347783,7.46981443 C24.3472906,5.93468041 25.1182266,4.45360825 26.8226601,4.45360825 C27.3179106,4.45593561 27.7956928,4.63770669 28.1682266,4.96552577 L28.1682266,2.54845361 L29.7853448,2.54845361 L29.7853448,10.2353814 L28.2336207,10.2353814 L28.2327586,10.2355052 Z M27.1041872,5.77138144 C26.2469212,5.77138144 25.9754926,6.68597938 25.9754926,7.39360825 C25.9754926,8.16680412 26.2034483,9.04874227 27.1258621,9.04874227 C28.026601,9.04874227 28.2219212,8.18845361 28.2219212,7.44816495 C28.2219212,6.68610309 28.0374384,5.77138144 27.1041872,5.77138144 L27.1041872,5.77138144 Z M32.4876847,3.99674227 L30.9027094,3.99674227 L30.9027094,2.54845361 L32.4876847,2.54845361 L32.4876847,3.99674227 Z M32.4876847,10.2355052 L30.9027094,10.2355052 L30.9027094,4.59562887 L32.4876847,4.59562887 L32.4876847,10.2355052 Z M36.1557882,10.3986804 C34.3976601,10.3986804 33.3017241,9.17938144 33.3017241,7.44816495 C33.3017241,5.61896907 34.4846059,4.4323299 36.3076355,4.4323299 C38.0332512,4.4323299 39.1183498,5.7065567 39.1183498,7.39373196 C39.117734,9.13571134 37.9023399,10.3986804 36.1551724,10.3986804 L36.1557882,10.3986804 Z M36.2315271,5.71694845 C35.2657635,5.71694845 34.9402709,6.5443299 34.9402709,7.38284536 C34.9402709,8.19934021 35.2440887,9.09216495 36.2098522,9.09216495 C37.1975369,9.09216495 37.4796798,8.16680412 37.4796798,7.32828866 C37.4791872,6.52280412 37.1752463,5.71694845 36.2315271,5.71694845 Z M44.0997537,5.89125773 L41.4080049,8.90721649 L44.2837438,8.90721649 L44.2837438,10.2356289 L39.3349754,10.2356289 L39.3349754,9.03773196 L42.1131773,5.92391753 L39.6501232,5.92391753 L39.6501232,4.59562887 L44.0995074,4.59562887 L44.0995074,5.89125773 L44.0997537,5.89125773 Z M42.5098522,3.82268041 L41.1283251,3.82268041 L40.1044335,2.30239175 L41.308867,2.30239175 L41.8407635,3.12581443 L42.3940887,2.30239175 L43.6206897,2.30239175 L42.5098522,3.82268041 Z M48.5705665,10.2350103 L48.5705665,9.6142268 C48.2557882,10.1261443 47.5504926,10.3764124 46.9752463,10.3764124 C45.2172414,10.3764124 45.0979064,8.95014433 45.0979064,7.88325773 L45.0979064,4.59562887 L46.6929803,4.59562887 L46.6929803,7.82919588 C46.6929803,8.44985567 46.8124384,9.04874227 47.5720443,9.04874227 C48.3752463,9.04874227 48.5380542,8.38453608 48.5380542,7.53525773 L48.5380542,4.59562887 L50.0897783,4.59562887 L50.0897783,10.2355052 L48.5705665,10.2355052 L48.5705665,10.2350103 Z M52.7593596,5.52049485 C53.0633005,4.73653608 53.5302956,4.48614433 54.2135468,4.48614433 C54.3081439,4.48479085 54.4026663,4.49212027 54.495936,4.50804124 L54.495936,5.96734021 C54.3704181,5.94618907 54.2434033,5.93526689 54.116133,5.93468041 C52.9658867,5.93468041 52.8353448,6.78395876 52.8353448,7.45892784 L52.8353448,10.2355052 L51.1970443,10.2355052 L51.1970443,4.59562887 L52.7593596,4.59562887 L52.7593596,5.52098969 L52.7593596,5.52049485 Z M58.4785714,10.2350103 L58.4785714,6.91459794 C58.4785714,6.37026804 58.2725369,5.83670103 57.6431034,5.83670103 C56.8834975,5.83670103 56.6774631,6.5116701 56.6774631,7.11092784 L56.6774631,10.2358763 L55.0710591,10.2358763 L55.0710591,4.59562887 L56.633867,4.59562887 L56.633867,5.24894845 C56.9942216,4.75063887 57.5724937,4.45848551 58.1855911,4.46498969 C58.6096148,4.45355684 59.0254299,4.58378391 59.3678571,4.83525773 C60.0082512,5.32515464 60.1166256,6.01051546 60.1166256,6.77319588 L60.1166256,10.2355052 L58.4785714,10.2355052 L58.4785714,10.2350103 Z M66.1296798,10.2350103 L64.5996305,10.2457732 L64.5884236,9.73410309 C63.970197,10.1588041 63.6226601,10.4093196 62.8195813,10.4093196 C61.7343596,10.4093196 60.866133,9.73410309 60.866133,8.58 C60.866133,6.97942268 62.4178571,6.83802062 63.6334975,6.66371134 C63.9158867,6.62028866 64.5017241,6.59839175 64.5017241,6.19546392 C64.5017241,5.76012371 63.9810345,5.67290722 63.6442118,5.67290722 C63.1993842,5.67290722 62.6343596,5.8254433 62.6570197,6.38053608 L61.1809113,6.38053608 C61.2571429,4.97604124 62.3094828,4.43171134 63.5791872,4.43171134 C64.5125616,4.43171134 65.5653941,4.58412371 65.9774631,5.56416495 C66.1512315,5.98874227 66.1296798,6.64206186 66.1296798,7.09917526 L66.1296798,10.2348866 L66.1296798,10.2350103 Z M64.5453202,7.53538144 C64.4177913,7.58698919 64.287205,7.63061898 64.1543103,7.66602062 C63.7093596,7.78589691 62.4832512,7.79665979 62.4832512,8.52618557 C62.4832512,8.99443299 62.9066502,9.13583505 63.2321429,9.13583505 C63.351601,9.13583505 64.1327586,9.12507216 64.5453202,8.40593814 L64.5453202,7.53501031 L64.5453202,7.53538144 Z M64.2263547,3.82131959 L63.0665025,3.82131959 L63.7947044,2.3017732 L65.5850985,2.3017732 L64.2263547,3.82131959 Z M68.8642857,10.2356289 L67.2690887,10.2356289 L67.2690887,2.54845361 L68.8642857,2.54845361 L68.8642857,10.2353814 L68.8642857,10.2356289 Z M77.557266,4.93336082 C77.5029557,4.11686598 77.014532,3.75723711 76.0703202,3.75723711 C75.3,3.75723711 74.8658867,4.02940206 74.8658867,4.54119588 C74.8658867,5.06387629 75.3758621,5.20540206 76.1466749,5.37971134 L77.1442118,5.6083299 C77.7846059,5.74973196 79.3800493,6.12 79.3800493,7.94919588 C79.3800493,8.89645361 78.9023399,10.4099381 76.167734,10.4099381 C74.4312808,10.4099381 72.9657635,9.81105155 72.8795567,7.79665979 L74.604803,7.69868041 C74.6156404,8.55884536 75.2235222,8.96164948 76.2434729,8.96164948 C76.6991379,8.96164948 77.610468,8.8636701 77.610468,8.06882474 C77.610468,7.43789691 76.9051724,7.27385567 76.1236453,7.0996701 L75.5817734,6.97991753 C74.0948276,6.65331959 73.1291872,6.08709278 73.1291872,4.68272165 C73.1291872,2.58123711 75.2342365,2.36350515 76.2112069,2.36350515 C78.0231527,2.36350515 79.1846059,3.23468041 79.260468,4.80235052 L77.557266,4.93336082 Z M81.9094828,4.59575258 L81.9094828,5.27010309 C82.3215517,4.7148866 82.7992611,4.45360825 83.4938424,4.45360825 C84.9915025,4.45360825 85.8270936,5.68391753 85.8270936,7.41513402 C85.8270936,8.90672165 85.0238916,10.3765361 83.395936,10.3765361 C82.7665025,10.3765361 82.3866995,10.1805773 81.9525862,9.74560825 L81.9525862,12 L80.3571429,12 L80.3571429,4.59562887 L81.908867,4.59562887 L81.9094828,4.59575258 Z M83.0917488,5.76086598 C82.1152709,5.76086598 81.9415025,6.6862268 81.9415025,7.45917526 C81.9415025,8.22123711 82.1481527,9.03797938 83.0810345,9.03797938 C83.9820197,9.03797938 84.2096061,8.04729897 84.2096061,7.31839175 C84.2098522,6.5988866 83.9495074,5.76061856 83.0919951,5.76061856 L83.0917488,5.76086598 Z M89.2559113,10.3989278 C87.4982759,10.3989278 86.4018473,9.17962887 86.4018473,7.44841237 C86.4018473,5.61921649 87.5848522,4.43257732 89.4081281,4.43257732 C91.1333744,4.43257732 92.2184729,5.70680412 92.2184729,7.39397938 C92.2187192,9.13571134 91.0034483,10.3986804 89.2561576,10.3986804 L89.2559113,10.3989278 Z M89.332266,5.71719588 C88.3660099,5.71719588 88.0406404,6.54457732 88.0406404,7.38309278 C88.0406404,8.19958763 88.3445813,9.09241237 89.3102217,9.09241237 C90.2979064,9.09241237 90.5798031,8.16705155 90.5798031,7.32853608 C90.5800493,6.52280412 90.276601,5.71694845 89.3325123,5.71694845 L89.332266,5.71719588 Z M94.5737685,5.52123711 C94.8777094,4.73727835 95.3445813,4.4868866 96.0278325,4.4868866 C96.1224705,4.48553179 96.2170339,4.49286119 96.3103448,4.50878351 L96.3103448,5.96734021 C96.1848264,5.94619389 96.057812,5.93527175 95.9305419,5.93468041 C94.7802956,5.93468041 94.6497537,6.78395876 94.6497537,7.45892784 L94.6497537,10.2355052 L93.0116995,10.2355052 L93.0116995,4.59562887 L94.5740148,4.59562887 L94.5740148,5.52098969 L94.5737685,5.52123711 Z M98.9584975,5.81443299 L98.9584975,8.352 C98.9584975,8.82 99.0447044,9.00507216 99.5658867,9.00507216 C99.7288177,9.00507216 99.8375616,8.99430928 100,8.98329897 L100,10.2246186 C99.6365907,10.2729832 99.2705184,10.2983939 98.9039409,10.300701 C97.5907635,10.300701 97.3626847,9.6697732 97.3626847,8.53682474 L97.3626847,5.81443299 L96.5599754,5.81443299 L96.5599754,4.59562887 L97.3626847,4.59562887 L97.3626847,2.92960825 L98.9582512,2.92960825 L98.9582512,4.59562887 L99.9454433,4.59562887 L99.9454433,5.81443299 L98.9582512,5.81443299 L98.9584975,5.81443299 Z"/></svg>
