<?xml version="1.0" encoding="UTF-8"?>
<svg width="12px" height="12px" viewBox="0 0 12 12" version="1.1" xmlns="http://www.w3.org/2000/svg" xmlns:xlink="http://www.w3.org/1999/xlink">
    <title>icoPlay</title>
    <g id="hokej.cz-facelift-2021" stroke="none" stroke-width="1" fill="none" fill-rule="evenodd">
        <g id="Komponenty" transform="translate(-216.000000, -3945.000000)" fill="#D91E28">
            <g id="icoPlay" transform="translate(216.000000, 3945.000000)">
                <path d="M6,12 C9.313725,12 12,9.313725 12,6 C12,2.68629 9.313725,0 6,0 C2.68629,0 0,2.68629 0,6 C0,9.313725 2.68629,12 6,12 Z M5.666025,3.8759625 C5.43588,3.722535 5.139975,3.7082325 4.896105,3.8387475 C4.652235,3.9692625 4.5,4.2234075 4.5,4.5 L4.5,7.5 C4.5,7.7766 4.652235,8.030775 4.896105,8.161275 C5.139975,8.291775 5.43588,8.27745 5.666025,8.124075 L7.916025,6.624075 C8.124675,6.48495 8.25,6.2508 8.25,6 C8.25,5.7492375 8.124675,5.515065 7.916025,5.3759625 L5.666025,3.8759625 Z"></path>
            </g>
        </g>
    </g>
</svg>