<?xml version="1.0" encoding="UTF-8"?>
<svg width="12px" height="12px" viewBox="0 0 12 12" version="1.1" xmlns="http://www.w3.org/2000/svg" xmlns:xlink="http://www.w3.org/1999/xlink">
    <title>icoSummary</title>
    <g id="hokej.cz-facelift-2021" stroke="none" stroke-width="1" fill="none" fill-rule="evenodd">
        <g id="Komponenty" transform="translate(-266.000000, -3967.000000)" fill="#051625">
            <g id="pen-clip" transform="translate(266.000000, 3967.000000)">
                <path d="M11.6704629,1.73850564 L10.2614944,0.329537067 C9.82208817,-0.109845689 9.1073617,-0.109845689 8.66797894,0.329537067 L7.34394786,1.65649784 L10.3435022,4.65605214 L11.6704629,3.33202106 C12.1098457,2.8926383 12.1098457,2.17791183 11.6704629,1.73850564 Z M5.88517461,1.2581307 C5.51903403,0.891966683 4.92730754,0.891966683 4.56116697,1.2581307 L1.77545638,4.04091159 C1.62897203,4.18737251 1.62897203,4.42463029 1.77545638,4.57109121 L2.04051104,4.8361693 C2.18697196,4.98263022 2.42425318,4.98263022 2.5707141,4.8361693 L5.22318251,2.18663058 L6.01848709,2.9819586 L2.20312039,6.7973253 C0.9728393,8.0276064 0.196589399,9.64162963 0.00325348596,11.3698872 L0.00325348596,11.3757466 C-0.0348324467,11.7331215 0.266878452,12.0348324 0.624253407,11.9967465 C2.35544069,11.8063403 3.96946392,11.0300904 5.2026747,9.79687961 L9.81329911,5.1862552 L5.88517461,1.2581307 Z" id="Shape"></path>
            </g>
        </g>
    </g>
</svg>