<?xml version="1.0" encoding="UTF-8"?>
<svg width="12px" height="8px" viewBox="0 0 12 8" version="1.1" xmlns="http://www.w3.org/2000/svg" xmlns:xlink="http://www.w3.org/1999/xlink">
    <title>icoTextBlack</title>
    <g id="hokej.cz-facelift-2021" stroke="none" stroke-width="1" fill="none" fill-rule="evenodd">
        <g id="Komponenty" transform="translate(-241.000000, -3969.000000)" fill="#051625">
            <g id="icoTextBlack" transform="translate(241.000000, 3969.000000)">
                <path d="M1,0 L11,0 C11.5522847,-1.01453063e-16 12,0.44771525 12,1 C12,1.55228475 11.5522847,2 11,2 L1,2 C0.44771525,2 -2.65431532e-16,1.55228475 0,1 C-6.76353751e-17,0.44771525 0.44771525,1.01453063e-16 1,0 Z M1,3 L7,3 C7.55228475,3 8,3.44771525 8,4 C8,4.55228475 7.55228475,5 7,5 L1,5 C0.44771525,5 6.76353751e-17,4.55228475 0,4 C-6.76353751e-17,3.44771525 0.44771525,3 1,3 Z M1,6 L9,6 C9.55228475,6 10,6.44771525 10,7 C10,7.55228475 9.55228475,8 9,8 L1,8 C0.44771525,8 -1.5440923e-16,7.55228475 0,7 C-6.76353751e-17,6.44771525 0.44771525,6 1,6 Z" id="icoText"></path>
            </g>
        </g>
    </g>
</svg>