<?xml version="1.0" encoding="UTF-8"?>
<svg width="24px" height="24px" viewBox="0 0 24 24" version="1.1" xmlns="http://www.w3.org/2000/svg" xmlns:xlink="http://www.w3.org/1999/xlink">
    <title>icoTWcolor</title>
    <g id="hokej.cz-facelift-2021" stroke="none" stroke-width="1" fill="none" fill-rule="evenodd">
        <g id="Komponenty" transform="translate(-313.000000, -3775.000000)" fill-rule="nonzero">
            <g id="icoTWcolor" transform="translate(313.000000, 3775.000000)">
                <path d="M0,12 C0,5.3726 5.3726,0 12,0 C18.6274,0 24,5.3726 24,12 C24,18.6274 18.6274,24 12,24 C5.3726,24 0,18.6274 0,12 Z" id="Path" fill="#55ACEE"></path>
                <path d="M11.6406,9.75375 L11.6658,10.169 L11.2461,10.11815 C9.71845,9.92325 8.38385,9.26225 7.25065,8.15215 L6.6967,7.60135 L6.554,8.0081 C6.2518,8.91485 6.44485,9.8724 7.0744,10.5164 C7.41015,10.87235 7.3346,10.9232 6.75545,10.71135 C6.554,10.64355 6.3777,10.5927 6.36095,10.6181 C6.3022,10.67745 6.50365,11.44855 6.6631,11.75365 C6.88135,12.17735 7.3262,12.59255 7.81305,12.8383 L8.22435,13.0332 L7.7375,13.0417 C7.26745,13.0417 7.25065,13.05015 7.30105,13.2281 C7.4689,13.7789 8.132,14.36365 8.87065,14.61785 L9.3911,14.7958 L8.9378,15.06695 C8.2663,15.4568 7.4773,15.6771 6.6883,15.69405 C6.31055,15.70255 6,15.7364 6,15.76185 C6,15.8466 7.02405,16.32115 7.62,16.50755 C9.40785,17.05835 11.5315,16.8211 13.1263,15.8805 C14.25945,15.21105 15.3926,13.8806 15.9214,12.59255 C16.2068,11.90615 16.4922,10.652 16.4922,10.05035 C16.4922,9.66055 16.51735,9.6097 16.9874,9.14365 C17.2644,8.87245 17.5246,8.57585 17.575,8.49115 C17.6589,8.33015 17.65055,8.33015 17.22245,8.4742 C16.509,8.7284 16.40825,8.6945 16.7608,8.3132 C17.021,8.042 17.33155,7.5505 17.33155,7.40645 C17.33155,7.38105 17.20565,7.4234 17.06295,7.49965 C16.9119,7.5844 16.57615,7.7115 16.3243,7.7878 L15.87105,7.93185 L15.45975,7.6522 C15.23315,7.49965 14.91415,7.3302 14.7463,7.27935 C14.3182,7.1607 13.6635,7.17765 13.2774,7.31325 C12.22815,7.6946 11.56505,8.67755 11.6406,9.75375 Z" id="Path" fill="#FFFFFF"></path>
            </g>
        </g>
    </g>
</svg>