<?xml version="1.0" encoding="UTF-8"?>
<svg width="24px" height="24px" viewBox="0 0 24 24" version="1.1" xmlns="http://www.w3.org/2000/svg" xmlns:xlink="http://www.w3.org/1999/xlink">
    <title>icoYTcolor</title>
    <g id="hokej.cz-facelift-2021" stroke="none" stroke-width="1" fill="none" fill-rule="evenodd">
        <g id="Komponenty" transform="translate(-341.000000, -3775.000000)" fill-rule="nonzero">
            <g id="icoYTcolor" transform="translate(341.000000, 3775.000000)">
                <path d="M0,12 C0,5.3726 5.3726,0 12,0 C18.6274,0 24,5.3726 24,12 C24,18.6274 18.6274,24 12,24 C5.3726,24 0,18.6274 0,12 Z" id="Path" fill="#FF0000"></path>
                <path d="M18.1325,9.0366 C17.9853,8.4711 17.55155,8.0258 17.0008,7.87465 C16.0027,7.6 12,7.6 12,7.6 C12,7.6 7.9973,7.6 6.99915,7.87465 C6.44835,8.0258 6.0146,8.4711 5.8674,9.0366 C5.6,10.06155 5.6,12.2 5.6,12.2 C5.6,12.2 5.6,14.3384 5.8674,15.3634 C6.0146,15.9289 6.44835,16.3742 6.99915,16.5254 C7.9973,16.8 12,16.8 12,16.8 C12,16.8 16.0027,16.8 17.0008,16.5254 C17.55155,16.3742 17.9853,15.9289 18.1325,15.3634 C18.4,14.3384 18.4,12.2 18.4,12.2 C18.4,12.2 18.4,10.06155 18.1325,9.0366 Z" id="Path" fill="#FFFFFF"></path>
                <polygon id="Path" fill="#FF0000" points="10.8 14.4 10.8 10.4 14 12.40005"></polygon>
            </g>
        </g>
    </g>
</svg>